<?xml version="1.0" standalone="no"?>
<!DOCTYPE svg PUBLIC "-//W3C//DTD SVG 20010904//EN"
 "http://www.w3.org/TR/2001/REC-SVG-20010904/DTD/svg10.dtd">
<svg version="1.0" xmlns="http://www.w3.org/2000/svg"
 width="703.000000pt" height="540.000000pt" viewBox="0 0 703.000000 540.000000"
 preserveAspectRatio="xMidYMid meet">

<g transform="translate(0.000000,540.000000) scale(0.100000,-0.100000)"
fill="#000000" stroke="none">
<path d="M3530 4439 c-310 -24 -524 -56 -1210 -183 -498 -91 -569 -116 -770
-267 -141 -107 -248 -244 -354 -456 -254 -506 -328 -1017 -212 -1448 166 -612
765 -1113 1581 -1320 93 -24 220 -51 280 -59 61 -8 164 -25 230 -37 235 -41
488 -37 735 12 447 89 915 373 1257 761 275 314 495 682 567 948 81 300 110
498 110 745 -1 410 -105 719 -313 926 -78 77 -129 113 -237 167 -186 93 -361
131 -914 197 -160 19 -585 28 -750 14z m737 -34 c538 -62 724 -102 908 -194
66 -33 142 -77 170 -98 78 -60 178 -184 230 -284 189 -366 202 -841 39 -1434
-43 -157 -109 -296 -234 -495 -221 -352 -448 -602 -740 -817 -465 -341 -1001
-481 -1520 -398 -52 9 -153 24 -225 35 -189 29 -273 47 -435 95 -438 131 -811
349 -1085 636 -310 325 -455 737 -416 1189 28 314 106 585 257 885 78 153 111
205 198 306 105 123 270 238 428 299 82 32 553 125 1013 200 343 56 444 68
780 94 99 8 508 -5 632 -19z"/>
<path d="M1433 2675 c-66 -29 -94 -126 -54 -191 22 -36 69 -67 129 -85 60 -18
92 -50 92 -94 0 -45 -29 -75 -72 -75 -44 0 -96 33 -104 65 -6 23 -10 26 -33
20 -41 -10 -44 -20 -22 -63 30 -58 81 -87 156 -87 102 0 159 57 152 151 -5 76
-32 107 -123 142 -95 37 -114 52 -114 95 0 40 25 67 64 67 39 0 63 -16 83 -55
18 -33 18 -33 51 -19 l34 14 -24 42 c-44 80 -131 110 -215 73z"/>
<path d="M4825 2676 c-74 -33 -119 -124 -119 -241 -1 -107 22 -171 79 -224 81
-75 193 -64 255 25 89 130 55 362 -63 434 -37 23 -107 26 -152 6z m138 -85
c34 -41 51 -119 44 -202 -9 -105 -47 -159 -112 -159 -37 0 -67 24 -91 70 -27
54 -25 201 4 257 26 50 45 62 94 63 28 0 42 -7 61 -29z"/>
<path d="M1740 2425 l0 -255 40 0 40 0 2 170 3 171 45 -168 46 -168 31 -3 c36
-4 30 -19 94 218 l34 125 3 -172 2 -173 40 0 40 0 0 255 0 256 -57 -3 -57 -3
-45 -167 c-25 -93 -48 -168 -52 -168 -3 0 -20 53 -38 118 -18 64 -39 141 -47
170 l-15 52 -55 0 -54 0 0 -255z"/>
<path d="M2276 2437 c-38 -133 -71 -248 -73 -254 -3 -9 8 -13 39 -13 l43 0 20
73 20 72 67 3 68 3 22 -76 22 -75 39 0 c27 0 38 4 35 13 -3 6 -35 121 -73 255
l-68 242 -46 0 -46 0 -69 -243z m139 46 c9 -32 18 -66 21 -75 5 -15 -2 -18
-40 -18 -25 0 -46 3 -46 6 0 13 41 144 45 144 2 0 11 -26 20 -57z"/>
<path d="M2620 2425 l0 -255 40 0 40 0 0 110 0 110 39 0 39 0 36 -86 c20 -48
39 -97 42 -110 5 -21 12 -24 50 -24 l44 0 -19 48 c-10 26 -31 76 -45 111 -14
36 -26 67 -26 71 0 4 11 12 25 18 62 29 87 143 44 204 -33 46 -74 58 -199 58
l-110 0 0 -255z m236 160 c22 -29 17 -73 -11 -100 -20 -21 -34 -25 -85 -25
l-60 0 0 76 0 76 71 -4 c55 -3 74 -8 85 -23z"/>
<path d="M2962 2648 l3 -33 68 -3 67 -3 0 -219 0 -220 40 0 40 0 0 220 0 219
68 3 67 3 3 33 3 32 -181 0 -181 0 3 -32z"/>
<path d="M3530 2425 l0 -255 109 0 c156 0 203 25 218 113 8 49 -13 102 -53
135 l-34 29 25 11 c27 12 55 65 55 102 0 34 -29 79 -63 100 -27 17 -51 20
-144 20 l-113 0 0 -255z m221 175 c14 -8 19 -21 19 -50 0 -54 -34 -80 -106
-80 l-54 0 0 68 c0 38 2 71 5 74 8 8 115 -1 136 -12z m3 -226 c32 -33 35 -85
6 -114 -16 -16 -33 -20 -85 -20 l-65 0 0 80 0 80 59 0 c50 0 62 -4 85 -26z"/>
<path d="M3920 2490 c0 -202 7 -239 51 -286 49 -52 172 -55 230 -6 54 44 59
71 59 287 l0 195 -39 0 -39 0 -4 -193 c-3 -164 -6 -197 -21 -220 -35 -54 -110
-47 -139 13 -15 30 -18 64 -18 218 l0 182 -40 0 -40 0 0 -190z"/>
<path d="M4340 2425 l0 -255 40 0 40 0 0 110 0 110 39 0 39 0 36 -86 c20 -48
39 -97 42 -110 5 -21 12 -24 50 -24 l44 0 -19 48 c-10 26 -31 76 -45 111 -32
79 -32 79 -1 91 61 23 87 141 44 202 -33 46 -74 58 -199 58 l-110 0 0 -255z
m236 160 c22 -29 17 -73 -11 -100 -20 -21 -34 -25 -85 -25 l-60 0 0 76 0 76
71 -4 c55 -3 74 -8 85 -23z"/>
</g>
</svg>
